<?xml version="1.0" encoding="utf-8"?>
<!-- Generator: Adobe Illustrator 28.2.0, SVG Export Plug-In . SVG Version: 6.00 Build 0)  -->
<svg version="1.1" id="Capa_2_00000114061411987387555270000016008658929489631929_"
	 xmlns="http://www.w3.org/2000/svg" xmlns:xlink="http://www.w3.org/1999/xlink" x="0px" y="0px" viewBox="0 0 1504 611.1"
	 style="enable-background:new 0 0 1504 611.1;" xml:space="preserve">
<style type="text/css">
	.st0{fill:#FD6100;}
</style>
<g id="Capa_1-2">
	<path class="st0" d="M1498.6,145.2c-0.1,155.3-0.2,310.5-0.3,465.8c-499.3,0-998.5,0.1-1497.8,0.1C-0.7,447.2,1.3,284.5,0,120.6
		C-0.1,106.8,0,16.8,0,16.8S15,2.6,26.8,8.9C46.6,19.5,52.3,35,64.7,52.7c14.1,20.1,31.7,36.3,51.2,51.1
		c41.6,31.5,93.9,54.8,147,44.7c48.8-9.3,88.4-44.6,134.7-62.5c61-23.6,131-15.3,190.6,11.5c81.6,36.6,144.6,104.1,218,155.3
		c120.1,83.9,264.9,114.1,407.1,75.9C1324,298.8,1423.3,231.8,1498.6,145.2L1498.6,145.2z"/>
</g>
</svg>
