<?xml version="1.0" encoding="UTF-8"?>
<svg id="Capa_2" data-name="Capa 2" xmlns="http://www.w3.org/2000/svg" viewBox="0 0 1499.51 418.08">
  <defs>
    <style>
      .cls-1 {
        fill: #ff9d00;
        stroke-width: 0px;
      }
    </style>
  </defs>
  <g id="Capa_1-2" data-name="Capa 1">
    <path class="cls-1" d="M0,318.71C.09,212.5.18,106.29.26.08c499.27-.03,999.98-.05,1499.24-.08v336.09s0,46.52,0,68.59c0,10.72-10.14,16.42-22.8,11.78-19.82-7.27-30.43-22.34-42.83-34.42-14.1-13.74-31.65-24.84-51.21-34.97-41.58-21.54-93.9-37.49-147-30.56-48.81,6.37-88.36,30.52-134.71,42.78-60.95,16.12-130.99,10.44-190.6-7.87-81.6-25.06-144.62-71.23-217.95-106.26-120.13-57.38-264.86-78.08-407.07-51.9C174.54,213.65,75.32,259.5,0,318.71Z"/>
  </g>
</svg>