<?xml version="1.0" encoding="UTF-8"?>
<svg id="Capa_2" data-name="Capa 2" xmlns="http://www.w3.org/2000/svg" viewBox="0 0 1499.51 611.18">
  <defs>
    <style>
      .cls-1 {
        fill: #ff9d00;
        stroke-width: 0px;
      }
    </style>
  </defs>
  <g id="Capa_1-2" data-name="Capa 1">
    <path class="cls-1" d="M0,465.92C.09,310.65.18,155.38.26.11c499.27-.04,999.98-.07,1499.24-.11v491.32s0,68,0,100.27c0,15.68-10.14,24-22.8,17.21-19.82-10.63-30.43-32.66-42.83-50.33-14.1-20.09-31.65-36.32-51.21-51.12-41.58-31.49-93.9-54.8-147-44.67-48.81,9.31-88.36,44.61-134.71,62.53-60.95,23.57-130.99,15.26-190.6-11.5-81.6-36.63-144.62-104.14-217.95-155.34-120.13-83.88-264.86-114.15-407.07-75.87C174.54,312.33,75.32,379.37,0,465.92Z"/>
  </g>
</svg>